<?xml version="1.0" encoding="UTF-8"?>
<svg width="700pt" height="700pt" version="1.1" viewBox="0 0 700 700" xmlns="http://www.w3.org/2000/svg">
 <g>
  <path d="m577.5 245c-4.6406 0-9.0938 1.8438-12.375 5.125s-5.125 7.7344-5.125 12.375v87.5c0 13.926-5.5312 27.277-15.375 37.125-9.8477 9.8438-23.199 15.375-37.125 15.375h-342.82l40.25-40.074c4.4375-4.4414 6.1719-10.91 4.5469-16.973-1.625-6.0664-6.3594-10.801-12.426-12.426-6.0625-1.625-12.531 0.10938-16.973 4.5469l-70 70c-1.4102 1.5391-2.5391 3.3164-3.3242 5.25-0.097656 0.57812-0.097656 1.1719 0 1.75-0.47656 1.4141-0.76953 2.8867-0.875 4.375v1.0508c0.007812 1.8594 0.36328 3.6992 1.0508 5.4258 0.72656 1.9648 1.8594 3.7539 3.3242 5.25l70 70c3.2852 3.3125 7.7578 5.1758 12.426 5.1758 4.6641 0 9.1367-1.8633 12.426-5.1758 3.3125-3.2852 5.1758-7.7578 5.1758-12.426s-1.8633-9.1406-5.1758-12.426l-40.426-38.324h342.82c23.207 0 45.461-9.2188 61.871-25.629s25.629-38.664 25.629-61.871v-87.5c0-4.6406-1.8438-9.0938-5.125-12.375s-7.7344-5.125-12.375-5.125z"/>
  <path d="m122.5 315c4.6406 0 9.0938-1.8438 12.375-5.125s5.125-7.7344 5.125-12.375v-87.5c0-13.926 5.5312-27.277 15.375-37.125 9.8477-9.8438 23.199-15.375 37.125-15.375h342.82l-40.25 40.074c-3.3125 3.2852-5.1758 7.7578-5.1758 12.426s1.8633 9.1406 5.1758 12.426c3.2852 3.3125 7.7578 5.1758 12.426 5.1758s9.1406-1.8633 12.426-5.1758l70-70c1.5938-1.6641 2.8398-3.6289 3.6758-5.7773 1.75-4.2578 1.75-9.0391 0-13.297-0.83594-2.1484-2.082-4.1133-3.6758-5.7773l-70-70c-4.4414-4.4375-10.91-6.1719-16.973-4.5469-6.0664 1.625-10.801 6.3594-12.426 12.426-1.625 6.0625 0.10938 12.531 4.5469 16.973l40.25 40.074h-342.82c-23.207 0-45.461 9.2188-61.871 25.629s-25.629 38.664-25.629 61.871v87.5c0 4.6406 1.8438 9.0938 5.125 12.375s7.7344 5.125 12.375 5.125z"/>
 </g>
</svg>
