<?xml version="1.0" encoding="UTF-8"?>
<svg width="700pt" height="700pt" version="1.1" viewBox="0 0 700 700" xmlns="http://www.w3.org/2000/svg"
    xmlns:xlink="http://www.w3.org/1999/xlink">
    <g>
        <path
            d="m307.44 321.44c6.7188 3.9219 8.3984 12.879 4.4805 19.039l-16.238 26.32c-34.719 56.559-85.68 88.48-140 88.48h-60.484c-7.8398 0-14-6.1602-14-14s6.1602-14 14-14h59.922c44.238 0 86.801-27.441 115.92-75.039l16.238-26.32c4.4805-6.7227 13.438-8.9609 20.16-4.4805zm307.44-212.8-65.52-65.52c-5.6016-5.6016-14.559-5.6016-19.602 0-5.6016 5.6016-5.6016 14.559 0 19.602l41.441 41.441-61.039-0.003906c-54.32 0-105.28 32.48-140 88.48l-10.078 16.238c-3.9219 6.7188-2.2383 15.121 4.4805 19.039 2.2383 1.6797 5.0391 2.2383 7.2812 2.2383 4.4805 0 9.5195-2.2383 11.762-6.7188l10.078-16.238c29.68-47.602 72.238-75.039 115.92-75.039h61.039l-40.883 41.441c-5.6016 5.6016-5.6016 14.559 0 19.602 2.8008 2.8008 6.1602 3.9219 10.078 3.9219 3.9219 0 7.2812-1.1211 10.078-3.9219l64.961-64.961c2.8008-2.8008 3.9219-6.1602 3.9219-10.078 0-3.9258-1.6797-7.2852-3.9219-9.5234zm-85.117 408.24c2.8008 2.8008 6.1602 3.9219 10.078 3.9219 3.9219 0 7.2812-1.1211 10.078-3.9219l64.961-64.961c2.8008-2.8008 3.9219-6.1602 3.9219-10.078 0-3.9219-1.6797-7.2812-3.9219-10.078l-65.52-64.961c-5.6016-5.6016-14.559-5.6016-19.602 0-5.6016 5.6016-5.6016 14.559 0 19.602l41.441 41.441-58.801-0.003906c-44.238 0-86.801-27.441-115.92-75.039l-99.117-160.16c-34.719-56.559-85.68-88.48-140-88.48h-62.16c-7.8398 0-14 6.1602-14 14s6.1602 14 14 14h62.16c44.238 0 86.801 27.441 115.92 75.039l99.117 160.16c34.719 56.559 85.68 88.48 140 88.48h58.801l-41.441 41.441c-5.5977 5.0391-5.5977 14 0.003907 19.598z" />
    </g>
</svg>